<mxfile host="app.diagrams.net" modified="2020-04-19T01:18:16.445Z" agent="5.0 (X11; Linux x86_64) AppleWebKit/537.36 (KHTML, like Gecko) Chrome/80.0.3987.122 Safari/537.36" etag="9kUNUs2dc022Px0nvYv_" version="12.9.6" type="github">
  <diagram id="4V9aUl03h_kaWBGR1Yky" name="Fontend-review">
    <mxGraphModel dx="1359" dy="894" grid="1" gridSize="10" guides="1" tooltips="1" connect="1" arrows="1" fold="1" page="1" pageScale="1" pageWidth="827" pageHeight="1169" math="0" shadow="0">
      <root>
        <mxCell id="0" />
        <mxCell id="1" parent="0" />
      </root>
    </mxGraphModel>
  </diagram>
</mxfile>
